# xmcd
# 
# Track frame offsets:
#     150
#     13553
#     38811
#     56194
#     71502
#     94262
#     105931
#     124139
#     142936
#     159904
#     208652
#     224992
# 
# Disc length: 3200
# 
# Revision: 0
# Processed by: cddbd v1.5.2PL0 Copyright (c) Steve Scherf et al.
# Submitted via: fre:ac v1.0.31
# 
DISCID=ab0c7e0c
DTITLE=Rochester Metropolitan Jazz Orchestra - Montage
DYEAR=2008
DGENRE=Jazz
TTITLE0=You Do Something To Me
TTITLE1=Shiny Stockings
TTITLE2=Watch What Happens
TTITLE3=I'm Afraid This Must Be Love
TTITLE4=Tiger Of San Pedro
TTITLE5=It Had To Be You
TTITLE6=Walkin' In The Rain
TTITLE7=You'd Be So Nice To Come Home To
TTITLE8=Where Or When
TTITLE9=Minor Changes
TTITLE10=Don't Cry Out Loud
TTITLE11=That's All
EXTD=
EXTT0=
EXTT1=
EXTT2=
EXTT3=
EXTT4=
EXTT5=
EXTT6=
EXTT7=
EXTT8=
EXTT9=
EXTT10=
EXTT11=
PLAYORDER=
